<mxfile host="app.diagrams.net" modified="2024-05-09T05:57:04.860Z" agent="Mozilla/5.0 (Macintosh; Intel Mac OS X 10_15_7) AppleWebKit/537.36 (KHTML, like Gecko) Chrome/124.0.0.0 Safari/537.36" etag="GHKY4PiAx25B_bsTVsyH" version="24.3.1" type="device" pages="4">
  <diagram name="Page-1" id="qCsWM2g1122hmiwEwRHx">
    <mxGraphModel dx="842" dy="484" grid="1" gridSize="10" guides="1" tooltips="1" connect="1" arrows="1" fold="1" page="1" pageScale="1" pageWidth="827" pageHeight="1169" math="0" shadow="0">
      <root>
        <mxCell id="0" />
        <mxCell id="1" parent="0" />
        <mxCell id="Zozk3Tp_xqFObuN3c1L9-4" value="" style="edgeStyle=orthogonalEdgeStyle;rounded=0;orthogonalLoop=1;jettySize=auto;html=1;" parent="1" source="Zozk3Tp_xqFObuN3c1L9-1" target="Zozk3Tp_xqFObuN3c1L9-3" edge="1">
          <mxGeometry relative="1" as="geometry" />
        </mxCell>
        <mxCell id="Zozk3Tp_xqFObuN3c1L9-1" value="React Component" style="rounded=0;whiteSpace=wrap;html=1;" parent="1" vertex="1">
          <mxGeometry x="541" y="365" width="120" height="60" as="geometry" />
        </mxCell>
        <mxCell id="Zozk3Tp_xqFObuN3c1L9-2" value="Returns the React Elements" style="text;html=1;align=center;verticalAlign=middle;resizable=0;points=[];autosize=1;strokeColor=none;fillColor=none;" parent="1" vertex="1">
          <mxGeometry x="516" y="425" width="170" height="30" as="geometry" />
        </mxCell>
        <mxCell id="Zozk3Tp_xqFObuN3c1L9-8" value="" style="edgeStyle=orthogonalEdgeStyle;rounded=0;orthogonalLoop=1;jettySize=auto;html=1;" parent="1" source="Zozk3Tp_xqFObuN3c1L9-3" target="Zozk3Tp_xqFObuN3c1L9-7" edge="1">
          <mxGeometry relative="1" as="geometry" />
        </mxCell>
        <mxCell id="Zozk3Tp_xqFObuN3c1L9-3" value="" style="rounded=0;whiteSpace=wrap;html=1;" parent="1" vertex="1">
          <mxGeometry x="541" y="147" width="120" height="140" as="geometry" />
        </mxCell>
        <mxCell id="Zozk3Tp_xqFObuN3c1L9-5" value="Previous VDOM" style="text;html=1;align=center;verticalAlign=middle;resizable=0;points=[];autosize=1;strokeColor=none;fillColor=none;" parent="1" vertex="1">
          <mxGeometry x="546" y="105" width="110" height="30" as="geometry" />
        </mxCell>
        <mxCell id="Zozk3Tp_xqFObuN3c1L9-6" value="P" style="ellipse;whiteSpace=wrap;html=1;aspect=fixed;" parent="1" vertex="1">
          <mxGeometry x="586" y="167" width="30" height="30" as="geometry" />
        </mxCell>
        <mxCell id="Zozk3Tp_xqFObuN3c1L9-12" value="" style="edgeStyle=orthogonalEdgeStyle;rounded=0;orthogonalLoop=1;jettySize=auto;html=1;" parent="1" source="Zozk3Tp_xqFObuN3c1L9-7" target="Zozk3Tp_xqFObuN3c1L9-11" edge="1">
          <mxGeometry relative="1" as="geometry" />
        </mxCell>
        <mxCell id="Zozk3Tp_xqFObuN3c1L9-7" value="" style="rounded=0;whiteSpace=wrap;html=1;" parent="1" vertex="1">
          <mxGeometry x="341" y="147" width="120" height="140" as="geometry" />
        </mxCell>
        <mxCell id="Zozk3Tp_xqFObuN3c1L9-9" value="Current VDOM" style="text;html=1;align=center;verticalAlign=middle;resizable=0;points=[];autosize=1;strokeColor=none;fillColor=none;" parent="1" vertex="1">
          <mxGeometry x="351" y="105" width="100" height="30" as="geometry" />
        </mxCell>
        <mxCell id="Zozk3Tp_xqFObuN3c1L9-10" value="P" style="ellipse;whiteSpace=wrap;html=1;aspect=fixed;" parent="1" vertex="1">
          <mxGeometry x="386" y="167" width="30" height="30" as="geometry" />
        </mxCell>
        <mxCell id="Zozk3Tp_xqFObuN3c1L9-18" style="edgeStyle=orthogonalEdgeStyle;rounded=0;orthogonalLoop=1;jettySize=auto;html=1;exitX=0.5;exitY=1;exitDx=0;exitDy=0;" parent="1" source="Zozk3Tp_xqFObuN3c1L9-11" edge="1">
          <mxGeometry relative="1" as="geometry">
            <mxPoint x="200.71428571428578" y="357" as="targetPoint" />
          </mxGeometry>
        </mxCell>
        <mxCell id="Zozk3Tp_xqFObuN3c1L9-11" value="" style="rounded=0;whiteSpace=wrap;html=1;" parent="1" vertex="1">
          <mxGeometry x="141" y="147" width="120" height="140" as="geometry" />
        </mxCell>
        <mxCell id="Zozk3Tp_xqFObuN3c1L9-13" value="Actual DOM&lt;div&gt;(Creates the UI)&lt;/div&gt;" style="text;html=1;align=center;verticalAlign=middle;resizable=0;points=[];autosize=1;strokeColor=none;fillColor=none;" parent="1" vertex="1">
          <mxGeometry x="146" y="100" width="110" height="40" as="geometry" />
        </mxCell>
        <mxCell id="Zozk3Tp_xqFObuN3c1L9-14" value="P" style="ellipse;whiteSpace=wrap;html=1;aspect=fixed;" parent="1" vertex="1">
          <mxGeometry x="186" y="167" width="30" height="30" as="geometry" />
        </mxCell>
        <mxCell id="Zozk3Tp_xqFObuN3c1L9-20" value="" style="edgeStyle=orthogonalEdgeStyle;rounded=0;orthogonalLoop=1;jettySize=auto;html=1;" parent="1" source="Zozk3Tp_xqFObuN3c1L9-17" edge="1">
          <mxGeometry relative="1" as="geometry">
            <mxPoint x="341" y="395.0000000000001" as="targetPoint" />
          </mxGeometry>
        </mxCell>
        <mxCell id="Zozk3Tp_xqFObuN3c1L9-17" value="User / Visitor" style="shape=umlActor;verticalLabelPosition=bottom;verticalAlign=top;html=1;outlineConnect=0;" parent="1" vertex="1">
          <mxGeometry x="186" y="365" width="30" height="60" as="geometry" />
        </mxCell>
        <mxCell id="Zozk3Tp_xqFObuN3c1L9-21" style="edgeStyle=orthogonalEdgeStyle;rounded=0;orthogonalLoop=1;jettySize=auto;html=1;exitX=1;exitY=0.5;exitDx=0;exitDy=0;entryX=0;entryY=0.5;entryDx=0;entryDy=0;" parent="1" target="Zozk3Tp_xqFObuN3c1L9-1" edge="1">
          <mxGeometry relative="1" as="geometry">
            <mxPoint x="461" y="395.0000000000001" as="sourcePoint" />
          </mxGeometry>
        </mxCell>
        <mxCell id="Zozk3Tp_xqFObuN3c1L9-22" value="LI" style="ellipse;whiteSpace=wrap;html=1;aspect=fixed;" parent="1" vertex="1">
          <mxGeometry x="586" y="217" width="30" height="30" as="geometry" />
        </mxCell>
        <mxCell id="Zozk3Tp_xqFObuN3c1L9-23" value="diffing&lt;div&gt;algorithm&lt;/div&gt;" style="text;html=1;align=center;verticalAlign=middle;resizable=0;points=[];autosize=1;strokeColor=none;fillColor=none;" parent="1" vertex="1">
          <mxGeometry x="471" y="227" width="70" height="40" as="geometry" />
        </mxCell>
        <mxCell id="Zozk3Tp_xqFObuN3c1L9-24" value="LI" style="ellipse;whiteSpace=wrap;html=1;aspect=fixed;" parent="1" vertex="1">
          <mxGeometry x="386" y="217" width="30" height="30" as="geometry" />
        </mxCell>
        <mxCell id="Zozk3Tp_xqFObuN3c1L9-25" value="reconsiliation&amp;nbsp;&lt;div&gt;process&lt;/div&gt;" style="text;html=1;align=center;verticalAlign=middle;resizable=0;points=[];autosize=1;strokeColor=none;fillColor=none;" parent="1" vertex="1">
          <mxGeometry x="251" y="227" width="100" height="40" as="geometry" />
        </mxCell>
        <mxCell id="Zozk3Tp_xqFObuN3c1L9-26" value="LI" style="ellipse;whiteSpace=wrap;html=1;aspect=fixed;" parent="1" vertex="1">
          <mxGeometry x="186" y="217" width="30" height="30" as="geometry" />
        </mxCell>
        <mxCell id="Zozk3Tp_xqFObuN3c1L9-27" value="React DOM Update Process" style="text;strokeColor=none;fillColor=none;html=1;fontSize=24;fontStyle=1;verticalAlign=middle;align=center;" parent="1" vertex="1">
          <mxGeometry x="341" y="60" width="100" height="40" as="geometry" />
        </mxCell>
        <mxCell id="Zozk3Tp_xqFObuN3c1L9-28" value="&lt;meta charset=&quot;utf-8&quot;&gt;&lt;span style=&quot;color: rgb(0, 0, 0); font-family: Helvetica; font-size: 12px; font-style: normal; font-variant-ligatures: normal; font-variant-caps: normal; font-weight: 400; letter-spacing: normal; orphans: 2; text-align: center; text-indent: 0px; text-transform: none; widows: 2; word-spacing: 0px; -webkit-text-stroke-width: 0px; white-space: normal; background-color: rgb(251, 251, 251); text-decoration-thickness: initial; text-decoration-style: initial; text-decoration-color: initial; display: inline !important; float: none;&quot;&gt;State changes the model&lt;/span&gt;" style="shape=process;whiteSpace=wrap;html=1;backgroundOutline=1;" parent="1" vertex="1">
          <mxGeometry x="341" y="365" width="120" height="60" as="geometry" />
        </mxCell>
      </root>
    </mxGraphModel>
  </diagram>
  <diagram id="3YT4fMd6txn-dRRh9WgB" name="Page-2">
    <mxGraphModel dx="842" dy="484" grid="1" gridSize="10" guides="1" tooltips="1" connect="1" arrows="1" fold="1" page="1" pageScale="1" pageWidth="827" pageHeight="1169" math="0" shadow="0">
      <root>
        <mxCell id="0" />
        <mxCell id="1" parent="0" />
        <mxCell id="Ac-35urtZ-GtHt7a7FWF-3" value="" style="edgeStyle=orthogonalEdgeStyle;rounded=0;orthogonalLoop=1;jettySize=auto;html=1;" parent="1" source="Ac-35urtZ-GtHt7a7FWF-1" target="Ac-35urtZ-GtHt7a7FWF-2" edge="1">
          <mxGeometry relative="1" as="geometry" />
        </mxCell>
        <mxCell id="Ac-35urtZ-GtHt7a7FWF-1" value="App" style="rounded=0;whiteSpace=wrap;html=1;" parent="1" vertex="1">
          <mxGeometry x="354" y="60" width="120" height="60" as="geometry" />
        </mxCell>
        <mxCell id="Ac-35urtZ-GtHt7a7FWF-5" value="" style="edgeStyle=orthogonalEdgeStyle;rounded=0;orthogonalLoop=1;jettySize=auto;html=1;" parent="1" source="Ac-35urtZ-GtHt7a7FWF-2" target="Ac-35urtZ-GtHt7a7FWF-4" edge="1">
          <mxGeometry relative="1" as="geometry" />
        </mxCell>
        <mxCell id="Ac-35urtZ-GtHt7a7FWF-2" value="Expenses" style="rounded=0;whiteSpace=wrap;html=1;" parent="1" vertex="1">
          <mxGeometry x="354" y="170" width="120" height="60" as="geometry" />
        </mxCell>
        <mxCell id="Ac-35urtZ-GtHt7a7FWF-9" value="" style="edgeStyle=orthogonalEdgeStyle;rounded=0;orthogonalLoop=1;jettySize=auto;html=1;" parent="1" source="Ac-35urtZ-GtHt7a7FWF-4" target="Ac-35urtZ-GtHt7a7FWF-8" edge="1">
          <mxGeometry relative="1" as="geometry" />
        </mxCell>
        <mxCell id="Ac-35urtZ-GtHt7a7FWF-4" value="ExpenseItem" style="rounded=0;whiteSpace=wrap;html=1;" parent="1" vertex="1">
          <mxGeometry x="354" y="280" width="120" height="60" as="geometry" />
        </mxCell>
        <mxCell id="Ac-35urtZ-GtHt7a7FWF-6" value="Array of EXPENSES" style="text;html=1;align=center;verticalAlign=middle;resizable=0;points=[];autosize=1;strokeColor=none;fillColor=none;" parent="1" vertex="1">
          <mxGeometry x="474" y="178" width="130" height="30" as="geometry" />
        </mxCell>
        <mxCell id="Ac-35urtZ-GtHt7a7FWF-7" value="Props - expense" style="text;html=1;align=center;verticalAlign=middle;resizable=0;points=[];autosize=1;strokeColor=none;fillColor=none;" parent="1" vertex="1">
          <mxGeometry x="414" y="240" width="110" height="30" as="geometry" />
        </mxCell>
        <mxCell id="Ac-35urtZ-GtHt7a7FWF-8" value="ExpenseDate" style="rounded=0;whiteSpace=wrap;html=1;" parent="1" vertex="1">
          <mxGeometry x="354" y="390" width="120" height="60" as="geometry" />
        </mxCell>
        <mxCell id="Ac-35urtZ-GtHt7a7FWF-10" value="Props - createdAt" style="text;html=1;align=center;verticalAlign=middle;resizable=0;points=[];autosize=1;strokeColor=none;fillColor=none;" parent="1" vertex="1">
          <mxGeometry x="414" y="350" width="120" height="30" as="geometry" />
        </mxCell>
      </root>
    </mxGraphModel>
  </diagram>
  <diagram id="cjI9bgEqusXfxX4H1UoT" name="Page-3">
    <mxGraphModel dx="601" dy="346" grid="1" gridSize="10" guides="1" tooltips="1" connect="1" arrows="1" fold="1" page="1" pageScale="1" pageWidth="827" pageHeight="1169" math="0" shadow="0">
      <root>
        <mxCell id="0" />
        <mxCell id="1" parent="0" />
        <mxCell id="xksn1wPDsAYUYmmrSIIw-3" value="" style="edgeStyle=orthogonalEdgeStyle;rounded=0;orthogonalLoop=1;jettySize=auto;html=1;" edge="1" parent="1" source="xksn1wPDsAYUYmmrSIIw-1" target="xksn1wPDsAYUYmmrSIIw-2">
          <mxGeometry relative="1" as="geometry" />
        </mxCell>
        <mxCell id="xksn1wPDsAYUYmmrSIIw-1" value="App&lt;div&gt;(React / Angular / Vue / JavaScript)&lt;/div&gt;" style="rounded=0;whiteSpace=wrap;html=1;" vertex="1" parent="1">
          <mxGeometry x="199" y="152" width="120" height="60" as="geometry" />
        </mxCell>
        <mxCell id="xksn1wPDsAYUYmmrSIIw-7" value="" style="edgeStyle=orthogonalEdgeStyle;rounded=0;orthogonalLoop=1;jettySize=auto;html=1;dashed=1;dashPattern=12 12;" edge="1" parent="1" source="xksn1wPDsAYUYmmrSIIw-2" target="xksn1wPDsAYUYmmrSIIw-6">
          <mxGeometry relative="1" as="geometry" />
        </mxCell>
        <mxCell id="xksn1wPDsAYUYmmrSIIw-20" style="edgeStyle=orthogonalEdgeStyle;rounded=0;orthogonalLoop=1;jettySize=auto;html=1;exitX=0.5;exitY=1;exitDx=0;exitDy=0;entryX=0;entryY=0.5;entryDx=0;entryDy=0;" edge="1" parent="1" source="xksn1wPDsAYUYmmrSIIw-2" target="xksn1wPDsAYUYmmrSIIw-19">
          <mxGeometry relative="1" as="geometry" />
        </mxCell>
        <mxCell id="xksn1wPDsAYUYmmrSIIw-2" value="Action" style="rounded=0;whiteSpace=wrap;html=1;fillColor=#dae8fc;strokeColor=#6c8ebf;" vertex="1" parent="1">
          <mxGeometry x="199" y="312" width="120" height="60" as="geometry" />
        </mxCell>
        <mxCell id="xksn1wPDsAYUYmmrSIIw-4" value="dispatch ()" style="text;html=1;align=center;verticalAlign=middle;resizable=0;points=[];autosize=1;strokeColor=none;fillColor=none;" vertex="1" parent="1">
          <mxGeometry x="269" y="250" width="80" height="30" as="geometry" />
        </mxCell>
        <mxCell id="xksn1wPDsAYUYmmrSIIw-5" value="{ type : &quot;&quot;, payload? :&quot; &quot; }" style="text;html=1;align=center;verticalAlign=middle;resizable=0;points=[];autosize=1;strokeColor=none;fillColor=none;" vertex="1" parent="1">
          <mxGeometry x="100" y="380" width="150" height="30" as="geometry" />
        </mxCell>
        <mxCell id="xksn1wPDsAYUYmmrSIIw-10" value="" style="edgeStyle=orthogonalEdgeStyle;rounded=0;orthogonalLoop=1;jettySize=auto;html=1;" edge="1" parent="1" source="xksn1wPDsAYUYmmrSIIw-6" target="xksn1wPDsAYUYmmrSIIw-9">
          <mxGeometry relative="1" as="geometry" />
        </mxCell>
        <mxCell id="xksn1wPDsAYUYmmrSIIw-6" value="Root&lt;div&gt;Reducer&lt;/div&gt;" style="rounded=0;whiteSpace=wrap;html=1;fillColor=#dae8fc;strokeColor=#6c8ebf;" vertex="1" parent="1">
          <mxGeometry x="509" y="312" width="120" height="60" as="geometry" />
        </mxCell>
        <mxCell id="xksn1wPDsAYUYmmrSIIw-8" value="(prevState, action) =&amp;gt; nextState" style="text;html=1;align=center;verticalAlign=middle;resizable=0;points=[];autosize=1;strokeColor=none;fillColor=none;" vertex="1" parent="1">
          <mxGeometry x="590" y="380" width="190" height="30" as="geometry" />
        </mxCell>
        <mxCell id="xksn1wPDsAYUYmmrSIIw-11" style="edgeStyle=orthogonalEdgeStyle;rounded=0;orthogonalLoop=1;jettySize=auto;html=1;exitX=0;exitY=0.5;exitDx=0;exitDy=0;entryX=1;entryY=0.5;entryDx=0;entryDy=0;" edge="1" parent="1" source="xksn1wPDsAYUYmmrSIIw-9" target="xksn1wPDsAYUYmmrSIIw-1">
          <mxGeometry relative="1" as="geometry" />
        </mxCell>
        <mxCell id="xksn1wPDsAYUYmmrSIIw-9" value="Store" style="rounded=0;whiteSpace=wrap;html=1;fillColor=#dae8fc;strokeColor=#6c8ebf;" vertex="1" parent="1">
          <mxGeometry x="509" y="152" width="120" height="60" as="geometry" />
        </mxCell>
        <mxCell id="xksn1wPDsAYUYmmrSIIw-12" value="Subscribe" style="text;html=1;align=center;verticalAlign=middle;resizable=0;points=[];autosize=1;strokeColor=none;fillColor=none;" vertex="1" parent="1">
          <mxGeometry x="349" y="150" width="80" height="30" as="geometry" />
        </mxCell>
        <mxCell id="xksn1wPDsAYUYmmrSIIw-13" value="Redux Unidirectional Data Flow" style="text;strokeColor=none;fillColor=none;html=1;fontSize=24;fontStyle=1;verticalAlign=middle;align=center;" vertex="1" parent="1">
          <mxGeometry x="364" y="40" width="100" height="40" as="geometry" />
        </mxCell>
        <mxCell id="xksn1wPDsAYUYmmrSIIw-14" value="R2" style="ellipse;whiteSpace=wrap;html=1;aspect=fixed;" vertex="1" parent="1">
          <mxGeometry x="509" y="342" width="30" height="30" as="geometry" />
        </mxCell>
        <mxCell id="xksn1wPDsAYUYmmrSIIw-15" value="R1" style="ellipse;whiteSpace=wrap;html=1;aspect=fixed;" vertex="1" parent="1">
          <mxGeometry x="509" y="312" width="30" height="30" as="geometry" />
        </mxCell>
        <mxCell id="xksn1wPDsAYUYmmrSIIw-16" value="R3" style="ellipse;whiteSpace=wrap;html=1;aspect=fixed;" vertex="1" parent="1">
          <mxGeometry x="599" y="312" width="30" height="30" as="geometry" />
        </mxCell>
        <mxCell id="xksn1wPDsAYUYmmrSIIw-17" value="R4" style="ellipse;whiteSpace=wrap;html=1;aspect=fixed;" vertex="1" parent="1">
          <mxGeometry x="599" y="342" width="30" height="30" as="geometry" />
        </mxCell>
        <mxCell id="xksn1wPDsAYUYmmrSIIw-21" style="edgeStyle=orthogonalEdgeStyle;rounded=0;orthogonalLoop=1;jettySize=auto;html=1;exitX=1;exitY=0.5;exitDx=0;exitDy=0;entryX=0.5;entryY=1;entryDx=0;entryDy=0;" edge="1" parent="1" source="xksn1wPDsAYUYmmrSIIw-19" target="xksn1wPDsAYUYmmrSIIw-6">
          <mxGeometry relative="1" as="geometry" />
        </mxCell>
        <mxCell id="xksn1wPDsAYUYmmrSIIw-19" value="Middlewares" style="rounded=0;whiteSpace=wrap;html=1;fillColor=#dae8fc;strokeColor=#6c8ebf;" vertex="1" parent="1">
          <mxGeometry x="354" y="470" width="120" height="60" as="geometry" />
        </mxCell>
        <mxCell id="xksn1wPDsAYUYmmrSIIw-22" value="Run side-effect code&lt;div&gt;e.g XHR Calls, Subscriptions, logging etc&lt;/div&gt;" style="text;html=1;align=center;verticalAlign=middle;resizable=0;points=[];autosize=1;strokeColor=none;fillColor=none;" vertex="1" parent="1">
          <mxGeometry x="294" y="530" width="240" height="40" as="geometry" />
        </mxCell>
        <mxCell id="xksn1wPDsAYUYmmrSIIw-23" value="Thunk / Saga" style="text;html=1;align=center;verticalAlign=middle;resizable=0;points=[];autosize=1;strokeColor=none;fillColor=none;" vertex="1" parent="1">
          <mxGeometry x="355" y="568" width="90" height="30" as="geometry" />
        </mxCell>
      </root>
    </mxGraphModel>
  </diagram>
  <diagram id="esfnZIf9je2W7v9kbFtB" name="Page-4">
    <mxGraphModel dx="862" dy="403" grid="1" gridSize="10" guides="1" tooltips="1" connect="1" arrows="1" fold="1" page="1" pageScale="1" pageWidth="827" pageHeight="1169" math="0" shadow="0">
      <root>
        <mxCell id="0" />
        <mxCell id="1" parent="0" />
        <mxCell id="xu-WPKKKbTpRkSd4tMug-3" value="" style="edgeStyle=orthogonalEdgeStyle;rounded=0;orthogonalLoop=1;jettySize=auto;html=1;fontSize=16;" edge="1" parent="1" source="xu-WPKKKbTpRkSd4tMug-1" target="xu-WPKKKbTpRkSd4tMug-2">
          <mxGeometry relative="1" as="geometry" />
        </mxCell>
        <mxCell id="xu-WPKKKbTpRkSd4tMug-1" value="Actor" style="shape=umlActor;verticalLabelPosition=bottom;verticalAlign=top;html=1;outlineConnect=0;fontSize=16;" vertex="1" parent="1">
          <mxGeometry x="50" y="130" width="30" height="60" as="geometry" />
        </mxCell>
        <mxCell id="xu-WPKKKbTpRkSd4tMug-6" value="" style="edgeStyle=orthogonalEdgeStyle;rounded=0;orthogonalLoop=1;jettySize=auto;html=1;fontSize=16;" edge="1" parent="1" source="xu-WPKKKbTpRkSd4tMug-2" target="xu-WPKKKbTpRkSd4tMug-5">
          <mxGeometry relative="1" as="geometry" />
        </mxCell>
        <mxCell id="xu-WPKKKbTpRkSd4tMug-2" value="SVM&lt;div style=&quot;font-size: 16px;&quot;&gt;(Source Control Version)&amp;nbsp;&lt;/div&gt;&lt;div style=&quot;font-size: 16px;&quot;&gt;Github, GitLab&lt;/div&gt;" style="whiteSpace=wrap;html=1;verticalAlign=top;fontSize=16;" vertex="1" parent="1">
          <mxGeometry x="210" y="120" width="120" height="80" as="geometry" />
        </mxCell>
        <mxCell id="xu-WPKKKbTpRkSd4tMug-4" value="CodeCommit" style="text;html=1;align=center;verticalAlign=middle;resizable=0;points=[];autosize=1;strokeColor=none;fillColor=none;fontSize=16;" vertex="1" parent="1">
          <mxGeometry x="80" y="168" width="120" height="30" as="geometry" />
        </mxCell>
        <mxCell id="xu-WPKKKbTpRkSd4tMug-8" value="" style="edgeStyle=orthogonalEdgeStyle;rounded=0;orthogonalLoop=1;jettySize=auto;html=1;fontSize=16;" edge="1" parent="1" source="xu-WPKKKbTpRkSd4tMug-5" target="xu-WPKKKbTpRkSd4tMug-7">
          <mxGeometry relative="1" as="geometry" />
        </mxCell>
        <mxCell id="xu-WPKKKbTpRkSd4tMug-5" value="Test" style="whiteSpace=wrap;html=1;verticalAlign=top;fontSize=16;" vertex="1" parent="1">
          <mxGeometry x="410" y="120" width="120" height="80" as="geometry" />
        </mxCell>
        <mxCell id="xu-WPKKKbTpRkSd4tMug-11" value="" style="edgeStyle=orthogonalEdgeStyle;rounded=0;orthogonalLoop=1;jettySize=auto;html=1;" edge="1" parent="1" source="xu-WPKKKbTpRkSd4tMug-7" target="xu-WPKKKbTpRkSd4tMug-10">
          <mxGeometry relative="1" as="geometry" />
        </mxCell>
        <mxCell id="xu-WPKKKbTpRkSd4tMug-7" value="Build" style="whiteSpace=wrap;html=1;verticalAlign=top;fontSize=16;" vertex="1" parent="1">
          <mxGeometry x="610" y="120" width="120" height="80" as="geometry" />
        </mxCell>
        <mxCell id="xu-WPKKKbTpRkSd4tMug-9" value="Continuous Integration CI / CD Continuous Deployment" style="text;strokeColor=none;fillColor=none;html=1;fontSize=24;fontStyle=1;verticalAlign=middle;align=center;" vertex="1" parent="1">
          <mxGeometry x="364" y="50" width="100" height="40" as="geometry" />
        </mxCell>
        <mxCell id="xu-WPKKKbTpRkSd4tMug-10" value="Deployment" style="whiteSpace=wrap;html=1;verticalAlign=top;fontSize=16;" vertex="1" parent="1">
          <mxGeometry x="610" y="280" width="120" height="80" as="geometry" />
        </mxCell>
        <mxCell id="xu-WPKKKbTpRkSd4tMug-12" value="AWS Cloud : CodeBuild, CodePipeline, S3 Bucket" style="text;html=1;align=center;verticalAlign=middle;resizable=0;points=[];autosize=1;strokeColor=none;fillColor=none;fontStyle=1" vertex="1" parent="1">
          <mxGeometry x="240" y="290" width="290" height="30" as="geometry" />
        </mxCell>
      </root>
    </mxGraphModel>
  </diagram>
</mxfile>
